<svg width="1600" height="1200" viewBox="0 0 1600 1200" fill="none" xmlns="http://www.w3.org/2000/svg">
  <rect width="1600" height="1200" fill="#ECE6DC"/>
  <rect x="120" y="120" width="1360" height="960" rx="42" fill="#F8F5EF" stroke="#D8D0C4"/>
  <rect x="210" y="250" width="420" height="44" rx="22" fill="#CFC6B7"/>
  <rect x="210" y="330" width="760" height="22" rx="11" fill="#D8D0C4"/>
  <rect x="210" y="380" width="620" height="22" rx="11" fill="#D8D0C4"/>
  <rect x="210" y="430" width="700" height="22" rx="11" fill="#D8D0C4"/>
  <rect x="210" y="560" width="280" height="64" rx="32" fill="#201D1A"/>
  <circle cx="1170" cy="340" r="170" fill="#D8D0C4"/>
  <circle cx="1170" cy="340" r="112" fill="#F5F1EA"/>
  <path d="M1065 778H1320" stroke="#6D7562" stroke-width="10" stroke-linecap="round"/>
  <path d="M1065 848H1410" stroke="#8A6A4A" stroke-width="10" stroke-linecap="round"/>
  <path d="M1065 918H1265" stroke="#B99F85" stroke-width="10" stroke-linecap="round"/>
  <rect x="210" y="740" width="690" height="180" rx="28" fill="#F1ECE3" stroke="#D8D0C4"/>
  <rect x="245" y="780" width="360" height="22" rx="11" fill="#D8D0C4"/>
  <rect x="245" y="830" width="520" height="18" rx="9" fill="#E1D9CC"/>
  <rect x="245" y="868" width="460" height="18" rx="9" fill="#E1D9CC"/>
</svg>
